<?xml version="1.0" encoding="iso-8859-1"?>
<!-- Generator: Adobe Illustrator 16.0.0, SVG Export Plug-In . SVG Version: 6.00 Build 0)  -->
<!DOCTYPE svg PUBLIC "-//W3C//DTD SVG 1.1//EN" "http://www.w3.org/Graphics/SVG/1.1/DTD/svg11.dtd">
<svg version="1.1" id="Capa_1" xmlns="http://www.w3.org/2000/svg" xmlns:xlink="http://www.w3.org/1999/xlink" x="0px" y="0px"
	 width="410px" height="410px" viewBox="0 0 410 410" style="enable-background:new 0 0 410 410;" xml:space="preserve">
<g>
	<g>
		<path d="M381.557,0H28.443C12.759,0,0,12.76,0,28.443v353.114C0,397.24,12.759,410,28.443,410h353.113
			C397.241,410,410,397.24,410,381.557V28.443C410,12.76,397.241,0,381.557,0z M133.211,133.472
			c18.122-18.119,42.211-28.098,67.835-28.098c24.006,0,46.662,8.756,64.329,24.758l-135.5,135.502
			C95.844,228.023,96.953,169.728,133.211,133.472z M360.109,360.37h-310l61.956-61.957c24.391,22.394,55.799,34.667,88.98,34.667
			c72.659,0,131.773-59.111,131.773-131.771c0-33.184-12.273-64.593-34.666-88.981l61.956-61.958L360.109,360.37L360.109,360.37z"/>
	</g>
</g>
</svg>